<mxfile host="app.diagrams.net" modified="2020-10-01T04:41:50.586Z" agent="5.0 (Windows NT 10.0; Win64; x64) AppleWebKit/537.36 (KHTML, like Gecko) Chrome/85.0.4183.121 Safari/537.36" etag="Qlc-1T6Tah7WZcP9Hnyy" version="13.7.7" type="github">
  <diagram id="S4E2LuzO3eiDdY1ENHtB" name="Page-1">
    <mxGraphModel dx="782" dy="1606" grid="1" gridSize="10" guides="1" tooltips="1" connect="1" arrows="1" fold="1" page="1" pageScale="1" pageWidth="827" pageHeight="1169" math="0" shadow="0">
      <root>
        <mxCell id="0" />
        <mxCell id="1" parent="0" />
        <mxCell id="3VcMCvWeGGqvSIJNMYXc-23" value="q8" style="ellipse;whiteSpace=wrap;html=1;aspect=fixed;" vertex="1" parent="1">
          <mxGeometry x="710" y="150" width="80" height="80" as="geometry" />
        </mxCell>
        <mxCell id="3VcMCvWeGGqvSIJNMYXc-28" value="" style="edgeStyle=orthogonalEdgeStyle;rounded=0;orthogonalLoop=1;jettySize=auto;html=1;" edge="1" parent="1" source="3VcMCvWeGGqvSIJNMYXc-25" target="3VcMCvWeGGqvSIJNMYXc-27">
          <mxGeometry relative="1" as="geometry" />
        </mxCell>
        <mxCell id="3VcMCvWeGGqvSIJNMYXc-36" style="edgeStyle=orthogonalEdgeStyle;rounded=0;orthogonalLoop=1;jettySize=auto;html=1;entryX=1;entryY=0.5;entryDx=0;entryDy=0;" edge="1" parent="1" source="3VcMCvWeGGqvSIJNMYXc-25" target="3VcMCvWeGGqvSIJNMYXc-25">
          <mxGeometry relative="1" as="geometry">
            <mxPoint x="840" y="320" as="targetPoint" />
            <Array as="points">
              <mxPoint x="750" y="250" />
              <mxPoint x="810" y="250" />
              <mxPoint x="810" y="190" />
            </Array>
          </mxGeometry>
        </mxCell>
        <mxCell id="3VcMCvWeGGqvSIJNMYXc-25" value="q8" style="ellipse;whiteSpace=wrap;html=1;aspect=fixed;" vertex="1" parent="1">
          <mxGeometry x="722.5" y="162.5" width="55" height="55" as="geometry" />
        </mxCell>
        <mxCell id="3VcMCvWeGGqvSIJNMYXc-1" value="" style="endArrow=classic;html=1;" edge="1" parent="1" target="3VcMCvWeGGqvSIJNMYXc-2">
          <mxGeometry width="50" height="50" relative="1" as="geometry">
            <mxPoint x="130" y="190" as="sourcePoint" />
            <mxPoint x="200" y="190" as="targetPoint" />
          </mxGeometry>
        </mxCell>
        <mxCell id="3VcMCvWeGGqvSIJNMYXc-4" value="" style="edgeStyle=orthogonalEdgeStyle;rounded=0;orthogonalLoop=1;jettySize=auto;html=1;" edge="1" parent="1" source="3VcMCvWeGGqvSIJNMYXc-2" target="3VcMCvWeGGqvSIJNMYXc-3">
          <mxGeometry relative="1" as="geometry" />
        </mxCell>
        <mxCell id="3VcMCvWeGGqvSIJNMYXc-7" value="" style="edgeStyle=orthogonalEdgeStyle;rounded=0;orthogonalLoop=1;jettySize=auto;html=1;" edge="1" parent="1" source="3VcMCvWeGGqvSIJNMYXc-2" target="3VcMCvWeGGqvSIJNMYXc-6">
          <mxGeometry relative="1" as="geometry">
            <Array as="points">
              <mxPoint x="340" y="190" />
              <mxPoint x="340" y="190" />
            </Array>
          </mxGeometry>
        </mxCell>
        <mxCell id="3VcMCvWeGGqvSIJNMYXc-8" value="1" style="edgeLabel;html=1;align=center;verticalAlign=middle;resizable=0;points=[];" vertex="1" connectable="0" parent="3VcMCvWeGGqvSIJNMYXc-7">
          <mxGeometry x="0.7417" relative="1" as="geometry">
            <mxPoint x="-30" y="-10" as="offset" />
          </mxGeometry>
        </mxCell>
        <mxCell id="3VcMCvWeGGqvSIJNMYXc-2" value="q1" style="ellipse;whiteSpace=wrap;html=1;aspect=fixed;" vertex="1" parent="1">
          <mxGeometry x="220" y="150" width="80" height="80" as="geometry" />
        </mxCell>
        <mxCell id="3VcMCvWeGGqvSIJNMYXc-15" value="" style="edgeStyle=orthogonalEdgeStyle;rounded=0;orthogonalLoop=1;jettySize=auto;html=1;" edge="1" parent="1" source="3VcMCvWeGGqvSIJNMYXc-3" target="3VcMCvWeGGqvSIJNMYXc-14">
          <mxGeometry relative="1" as="geometry" />
        </mxCell>
        <mxCell id="3VcMCvWeGGqvSIJNMYXc-3" value="q4" style="ellipse;whiteSpace=wrap;html=1;aspect=fixed;" vertex="1" parent="1">
          <mxGeometry x="220" y="-10" width="80" height="80" as="geometry" />
        </mxCell>
        <mxCell id="3VcMCvWeGGqvSIJNMYXc-5" value="0" style="text;html=1;align=center;verticalAlign=middle;resizable=0;points=[];autosize=1;" vertex="1" parent="1">
          <mxGeometry x="240" y="110" width="20" height="20" as="geometry" />
        </mxCell>
        <mxCell id="3VcMCvWeGGqvSIJNMYXc-6" value="q2" style="ellipse;whiteSpace=wrap;html=1;aspect=fixed;" vertex="1" parent="1">
          <mxGeometry x="380" y="150" width="80" height="80" as="geometry" />
        </mxCell>
        <mxCell id="3VcMCvWeGGqvSIJNMYXc-9" value="" style="endArrow=classic;html=1;" edge="1" parent="1">
          <mxGeometry width="50" height="50" relative="1" as="geometry">
            <mxPoint x="380" y="200" as="sourcePoint" />
            <mxPoint x="300" y="200" as="targetPoint" />
          </mxGeometry>
        </mxCell>
        <mxCell id="3VcMCvWeGGqvSIJNMYXc-10" value="1" style="edgeLabel;html=1;align=center;verticalAlign=middle;resizable=0;points=[];" vertex="1" connectable="0" parent="3VcMCvWeGGqvSIJNMYXc-9">
          <mxGeometry x="0.5083" y="-3" relative="1" as="geometry">
            <mxPoint x="20" y="13" as="offset" />
          </mxGeometry>
        </mxCell>
        <mxCell id="3VcMCvWeGGqvSIJNMYXc-12" value="" style="endArrow=classic;html=1;exitX=0;exitY=0;exitDx=0;exitDy=0;" edge="1" parent="1" source="3VcMCvWeGGqvSIJNMYXc-6">
          <mxGeometry width="50" height="50" relative="1" as="geometry">
            <mxPoint x="380" y="240" as="sourcePoint" />
            <mxPoint x="297" y="53" as="targetPoint" />
          </mxGeometry>
        </mxCell>
        <mxCell id="3VcMCvWeGGqvSIJNMYXc-13" value="0" style="text;html=1;align=center;verticalAlign=middle;resizable=0;points=[];autosize=1;" vertex="1" parent="1">
          <mxGeometry x="330" y="110" width="20" height="20" as="geometry" />
        </mxCell>
        <mxCell id="3VcMCvWeGGqvSIJNMYXc-17" style="edgeStyle=orthogonalEdgeStyle;rounded=0;orthogonalLoop=1;jettySize=auto;html=1;" edge="1" parent="1" source="3VcMCvWeGGqvSIJNMYXc-14">
          <mxGeometry relative="1" as="geometry">
            <mxPoint x="747.3299999999999" y="-10" as="targetPoint" />
            <Array as="points">
              <mxPoint x="420" y="-30" />
              <mxPoint x="747" y="-30" />
            </Array>
          </mxGeometry>
        </mxCell>
        <mxCell id="3VcMCvWeGGqvSIJNMYXc-14" value="q3" style="ellipse;whiteSpace=wrap;html=1;aspect=fixed;" vertex="1" parent="1">
          <mxGeometry x="380" y="-10" width="80" height="80" as="geometry" />
        </mxCell>
        <mxCell id="3VcMCvWeGGqvSIJNMYXc-16" value="0,1" style="text;html=1;align=center;verticalAlign=middle;resizable=0;points=[];autosize=1;" vertex="1" parent="1">
          <mxGeometry x="320" y="10" width="30" height="20" as="geometry" />
        </mxCell>
        <mxCell id="3VcMCvWeGGqvSIJNMYXc-45" style="edgeStyle=orthogonalEdgeStyle;rounded=0;orthogonalLoop=1;jettySize=auto;html=1;entryX=0;entryY=0.5;entryDx=0;entryDy=0;" edge="1" parent="1" source="3VcMCvWeGGqvSIJNMYXc-22" target="3VcMCvWeGGqvSIJNMYXc-25">
          <mxGeometry relative="1" as="geometry" />
        </mxCell>
        <mxCell id="3VcMCvWeGGqvSIJNMYXc-22" value="q6" style="ellipse;whiteSpace=wrap;html=1;aspect=fixed;" vertex="1" parent="1">
          <mxGeometry x="510" y="150" width="80" height="80" as="geometry" />
        </mxCell>
        <mxCell id="3VcMCvWeGGqvSIJNMYXc-33" style="edgeStyle=orthogonalEdgeStyle;rounded=0;orthogonalLoop=1;jettySize=auto;html=1;" edge="1" parent="1" source="3VcMCvWeGGqvSIJNMYXc-26">
          <mxGeometry relative="1" as="geometry">
            <mxPoint x="750" y="90" as="targetPoint" />
            <Array as="points">
              <mxPoint x="790" y="90" />
            </Array>
          </mxGeometry>
        </mxCell>
        <mxCell id="3VcMCvWeGGqvSIJNMYXc-26" value="q8" style="ellipse;whiteSpace=wrap;html=1;aspect=fixed;" vertex="1" parent="1">
          <mxGeometry x="710" y="-10" width="80" height="80" as="geometry" />
        </mxCell>
        <mxCell id="3VcMCvWeGGqvSIJNMYXc-27" value="q7" style="ellipse;whiteSpace=wrap;html=1;aspect=fixed;" vertex="1" parent="1">
          <mxGeometry x="722.5" y="2.5" width="55" height="55" as="geometry" />
        </mxCell>
        <mxCell id="3VcMCvWeGGqvSIJNMYXc-29" value="1" style="text;html=1;align=center;verticalAlign=middle;resizable=0;points=[];autosize=1;" vertex="1" parent="1">
          <mxGeometry x="750" y="100" width="20" height="20" as="geometry" />
        </mxCell>
        <mxCell id="3VcMCvWeGGqvSIJNMYXc-34" value="0,1" style="text;html=1;align=center;verticalAlign=middle;resizable=0;points=[];autosize=1;" vertex="1" parent="1">
          <mxGeometry x="790" y="70" width="30" height="20" as="geometry" />
        </mxCell>
        <mxCell id="3VcMCvWeGGqvSIJNMYXc-37" value="0" style="text;html=1;align=center;verticalAlign=middle;resizable=0;points=[];autosize=1;" vertex="1" parent="1">
          <mxGeometry x="807" y="217.5" width="20" height="20" as="geometry" />
        </mxCell>
        <mxCell id="3VcMCvWeGGqvSIJNMYXc-41" value="" style="endArrow=classic;html=1;exitX=1;exitY=1;exitDx=0;exitDy=0;entryX=0;entryY=0;entryDx=0;entryDy=0;" edge="1" parent="1" source="3VcMCvWeGGqvSIJNMYXc-14" target="3VcMCvWeGGqvSIJNMYXc-22">
          <mxGeometry width="50" height="50" relative="1" as="geometry">
            <mxPoint x="480" y="160" as="sourcePoint" />
            <mxPoint x="530" y="110" as="targetPoint" />
          </mxGeometry>
        </mxCell>
        <mxCell id="3VcMCvWeGGqvSIJNMYXc-44" value="0" style="text;html=1;align=center;verticalAlign=middle;resizable=0;points=[];autosize=1;" vertex="1" parent="1">
          <mxGeometry x="460" y="100" width="20" height="20" as="geometry" />
        </mxCell>
        <mxCell id="3VcMCvWeGGqvSIJNMYXc-46" value="0,1" style="text;html=1;align=center;verticalAlign=middle;resizable=0;points=[];autosize=1;" vertex="1" parent="1">
          <mxGeometry x="630" y="170" width="30" height="20" as="geometry" />
        </mxCell>
      </root>
    </mxGraphModel>
  </diagram>
</mxfile>
